<?xml version="1.0" encoding="UTF-8" standalone="no"?>
<svg width="140px" height="24px" viewBox="0 0 423 72" version="1.1" xmlns="http://www.w3.org/2000/svg" xmlns:xlink="http://www.w3.org/1999/xlink" xmlns:sketch="http://www.bohemiancoding.com/sketch/ns">
    <g id="Page-1" stroke="none" stroke-width="1" fill="none" fill-rule="evenodd" sketch:type="MSPage">
        <g id="Group" sketch:type="MSLayerGroup" transform="translate(2.000000, 0.000000)" fill="#000000">
            <path d="M297.221,11.077 C296.232,13.106 295.145,15.095 294.272,17.174 C291.427,23.95 288.655,30.757 285.871,37.559 C285.494,38.482 285.224,39.448 284.892,40.389 C284.591,41.244 284.044,41.829 283.093,41.93 C282.123,42.032 281.54,41.52 281.068,40.734 C279.686,38.441 278.266,36.172 276.868,33.887 C276.43,33.172 275.975,32.462 275.591,31.719 C272.265,25.305 268.951,18.884 265.631,12.467 C265.601,12.408 265.507,12.384 265.239,12.217 C265.078,13.878 264.829,15.433 264.793,16.991 C264.589,25.705 264.43,34.419 264.275,43.133 C264.26,43.963 264.391,44.797 264.471,45.628 C264.564,46.579 264.215,47.305 263.307,47.621 C262.396,47.94 261.596,47.63 261.183,46.767 C260.9,46.176 260.698,45.473 260.707,44.824 C260.816,37.99 260.972,31.156 261.123,24.322 C261.199,20.967 261.259,17.608 261.399,14.255 C261.507,11.705 261.726,9.158 261.919,6.612 C261.958,6.098 262.023,5.563 262.206,5.089 C262.888,3.328 264.842,2.985 265.829,4.566 C266.859,6.212 267.575,8.053 268.456,9.795 C270.707,14.247 272.968,18.692 275.236,23.136 C276.143,24.913 277.048,26.692 278.017,28.435 C279.41,30.944 280.859,33.419 282.486,36.263 C283.093,34.919 283.57,33.947 283.979,32.947 C286.445,26.922 288.739,20.818 291.411,14.885 C292.977,11.406 295.122,8.185 297.052,4.873 C297.32,4.413 297.785,4.014 298.25,3.735 C299.403,3.047 300.643,3.56 300.968,4.862 C301.14,5.552 301.193,6.283 301.213,6.999 C301.526,17.749 301.829,28.499 302.13,39.247 C302.186,41.245 302.218,43.244 302.263,45.242 C302.296,46.705 301.646,47.596 300.508,47.638 C299.369,47.679 298.621,46.831 298.582,45.384 C298.428,39.707 298.317,34.03 298.135,28.357 C297.949,22.649 297.697,16.942 297.476,11.235 C297.389,11.182 297.305,11.129 297.221,11.077 L297.221,11.077 Z" id="Shape" sketch:type="MSShapeGroup"></path>
            <path d="M377.253,39.533 C377.253,38.548 377.273,37.559 377.249,36.574 C377.133,31.383 376.961,26.191 376.893,20.999 C376.821,15.409 376.822,9.816 376.837,4.226 C376.84,2.9 377.934,1.971 379.092,2.135 C380.255,2.3 380.619,3.256 380.53,4.675 C380.342,7.7 380.249,10.738 380.289,13.771 C380.402,22.198 380.641,30.624 380.751,39.051 C380.779,41.323 380.517,43.601 380.414,45.877 C380.365,46.967 380.077,47.894 378.869,48.124 C377.691,48.35 377.091,47.663 376.571,46.663 C373.537,40.81 370.475,34.983 366.17,29.901 C364.42,27.837 363.027,25.47 361.427,23.275 C357.894,18.434 354.328,13.617 350.783,8.785 C350.644,8.597 350.566,8.363 350.317,8.235 C349.325,12.05 348.754,15.767 349.091,19.589 C349.271,21.613 349.457,23.651 349.424,25.68 C349.32,32.038 349.309,38.39 350.116,44.714 C350.263,45.873 349.591,46.769 348.554,46.894 C347.593,47.01 346.738,46.361 346.592,45.216 C346.321,43.075 346.02,40.928 345.962,38.778 C345.845,34.383 345.921,29.984 345.836,25.59 C345.793,23.36 345.548,21.133 345.437,18.902 C345.239,14.959 345.844,11.095 346.656,7.255 C346.872,6.239 347.071,5.222 347.252,4.201 C347.425,3.221 347.823,2.446 348.898,2.244 C349.963,2.043 350.752,2.473 351.375,3.328 C353.23,5.88 355.115,8.412 356.967,10.969 C359.755,14.821 362.514,18.693 365.303,22.544 C367.271,25.262 369.327,27.918 371.235,30.678 C372.979,33.202 374.577,35.83 376.231,38.417 C376.463,38.78 376.65,39.174 376.858,39.553 C376.988,39.548 377.12,39.54 377.253,39.533 L377.253,39.533 Z" id="Shape" sketch:type="MSShapeGroup"></path>
            <path d="M0.564,24.587 C0.72,17.989 0.935,11.394 0.996,4.797 C1.013,3.08 1.81,1.954 3.627,1.863 C9.013,1.595 14.439,1.233 19.796,1.634 C26.003,2.097 30.728,5.495 34.112,10.763 C36.097,13.851 37.797,17 38.337,20.713 C38.842,24.184 38.819,27.692 37.621,30.897 C36.681,33.411 34.886,35.66 33.209,37.826 C31.705,39.772 29.866,41.464 28.144,43.235 C25.394,46.063 21.996,47.476 18.086,47.679 C14.777,47.851 11.465,48.034 8.152,48.073 C6.213,48.094 4.267,47.997 2.402,47.202 C1.326,46.743 0.767,46.107 0.765,44.98 C0.757,38.183 0.761,31.386 0.761,24.589 C0.696,24.588 0.631,24.587 0.564,24.587 L0.564,24.587 Z M4.688,5.416 C4.65,5.885 4.599,6.234 4.596,6.586 C4.504,17.975 4.393,29.363 4.347,40.753 C4.33,44.454 4.411,44.528 8.201,44.487 C11.513,44.452 14.822,44.271 18.128,44.07 C21.021,43.894 23.562,42.836 25.597,40.715 C27.225,39.019 28.963,37.407 30.422,35.575 C31.879,33.743 33.474,31.836 34.242,29.686 C35.231,26.925 35.199,23.899 34.738,20.916 C34.24,17.682 32.624,15.008 30.879,12.367 C27.961,7.952 23.859,5.299 18.595,5.076 C14.016,4.884 9.414,5.278 4.688,5.416 L4.688,5.416 Z" id="Shape" sketch:type="MSShapeGroup"></path>
            <path d="M200.287,45.871 C196.185,45.811 192.176,45.456 188.556,43.355 C187.152,42.542 185.736,41.631 184.601,40.491 C180.982,36.852 178.234,32.627 177.595,27.431 C177.082,23.275 177.474,19.119 178.994,15.153 C181.26,9.243 185.502,5.29 191.316,2.98 C194.613,1.67 198.103,1.42 201.605,0.986 C206.083,0.432 209.066,2.604 211.78,5.394 C214.301,7.987 216.645,10.803 218.72,13.764 C220.562,16.392 221.549,19.456 221.655,22.76 C221.782,26.765 222,30.766 220.343,34.561 C217.739,40.517 213.449,44.365 206.833,45.221 C204.659,45.504 202.469,45.658 200.287,45.871 L200.287,45.871 Z M218.139,26.569 C218.139,25.77 218.13,24.97 218.14,24.172 C218.18,21.134 217.483,18.23 215.765,15.77 C213.947,13.165 211.861,10.722 209.703,8.381 C207.958,6.486 206.183,4.797 203.085,4.818 C200.438,4.838 197.853,4.842 195.275,5.444 C181.41,8.68 178.203,23.875 183.115,32.613 C183.799,33.829 184.592,34.992 185.427,36.108 C187.619,39.035 190.538,40.912 194.114,41.639 C197.828,42.395 201.59,42.323 205.329,41.831 C208.153,41.462 210.846,40.825 213.087,38.757 C216.687,35.433 218.31,31.399 218.139,26.569 L218.139,26.569 Z" id="Shape" sketch:type="MSShapeGroup"></path>
            <path d="M119.436,27.888 C119.407,28.294 119.367,28.57 119.372,28.844 C119.456,33.592 119.554,38.34 119.632,43.088 C119.66,44.743 119.643,44.721 121.3,44.614 C127.791,44.205 134.074,42.635 140.387,41.221 C141.513,40.968 142.436,41.309 142.741,42.269 C143.077,43.32 142.669,44.196 141.681,44.498 C139.895,45.048 138.057,45.436 136.227,45.825 C130.599,47.023 124.977,48.27 119.177,48.281 C116.848,48.285 116.18,47.778 116.141,45.44 C116.071,41.245 116.453,37.025 116.134,32.855 C115.42,23.543 116.362,14.235 115.941,4.932 C115.917,4.373 115.936,3.812 115.948,3.253 C115.99,1.412 116.619,0.725 118.466,0.631 C120.344,0.536 122.223,0.473 124.102,0.469 C126.74,0.464 129.378,0.49 132.016,0.571 C135.731,0.686 139.446,0.843 143.157,1.037 C143.899,1.076 144.671,1.256 145.352,1.548 C146.221,1.918 146.588,2.676 146.281,3.62 C145.979,4.541 145.288,4.915 144.332,4.855 C140.508,4.62 136.686,4.293 132.857,4.182 C128.783,4.064 124.703,4.149 120.626,4.152 C120.314,4.152 120.002,4.207 119.572,4.247 L119.572,24.177 C119.923,24.177 120.343,24.173 120.76,24.177 C125.354,24.233 129.948,24.25 134.537,24.393 C135.182,24.414 135.958,24.921 136.385,25.44 C136.657,25.773 136.625,26.764 136.329,27.063 C135.862,27.533 135.058,27.907 134.396,27.91 C129.962,27.922 125.531,27.82 121.098,27.769 C120.584,27.766 120.07,27.841 119.436,27.888 L119.436,27.888 Z" id="Shape" sketch:type="MSShapeGroup"></path>
            <path d="M315.56,26.529 L315.56,43.841 C315.848,43.865 316.225,43.932 316.601,43.929 C320.872,43.899 325.148,43.982 329.361,43 C331.182,42.575 333.06,42.396 334.912,42.107 C335.989,41.939 336.824,42.398 337.075,43.344 C337.363,44.427 336.853,45.254 335.887,45.513 C334.355,45.924 332.743,46.033 331.192,46.378 C325.88,47.561 320.483,47.512 315.089,47.566 C312.783,47.588 311.823,46.733 311.837,44.451 C311.852,41.813 311.974,39.178 311.98,36.54 C312.001,27.75 311.996,18.958 311.979,10.167 C311.976,8.609 311.856,7.053 311.806,5.496 C311.739,3.387 312.47,2.436 314.537,2.441 C320.971,2.456 327.402,2.581 333.836,2.662 C335.355,2.681 336.872,2.709 338.391,2.706 C339.74,2.703 340.559,3.279 340.633,4.335 C340.71,5.439 339.92,6.242 338.545,6.306 C337.189,6.369 335.825,6.342 334.468,6.312 C328.634,6.183 322.801,6.039 316.967,5.902 C316.532,5.892 316.099,5.901 315.509,5.901 L315.509,22.743 C317.515,22.826 319.611,23.011 321.701,22.973 C324.222,22.929 326.72,22.762 329.192,23.521 C329.901,23.739 330.771,23.563 331.542,23.423 C332.726,23.207 333.561,23.527 333.906,24.485 C334.25,25.431 333.836,26.285 332.749,26.797 C331.17,27.541 329.55,27.191 327.922,26.986 C326.27,26.781 324.608,26.599 322.944,26.548 C320.559,26.475 318.17,26.529 315.56,26.529 L315.56,26.529 Z" id="Shape" sketch:type="MSShapeGroup"></path>
            <path d="M47.031,4.456 C47.366,10.138 47.719,15.678 47.998,21.222 C48.06,22.446 48.57,22.902 49.709,22.69 C54.476,21.804 59.06,23.544 63.758,23.649 C64.862,23.674 65.59,24.567 65.543,25.531 C65.494,26.555 64.664,27.317 63.47,27.217 C61.287,27.031 59.119,26.668 56.937,26.499 C54.255,26.291 51.565,26.208 48.796,26.066 C48.796,27.146 48.771,27.894 48.801,28.64 C48.985,32.993 49.202,37.344 49.353,41.698 C49.381,42.514 49.642,42.885 50.449,42.875 C54.275,42.834 58.102,42.807 61.929,42.754 C64.164,42.723 66.402,42.605 68.637,42.619 C69.875,42.628 70.656,43.564 70.495,44.63 C70.316,45.837 68.955,46.998 67.938,46.623 C65.443,45.703 62.968,46.304 60.488,46.547 C56.247,46.963 52.025,46.824 47.828,46.113 C46.42,45.875 45.821,45.069 45.766,43.595 C45.565,38.242 45.489,32.883 45.135,27.541 C44.643,20.129 43.942,12.73 43.33,5.328 C43.3,4.97 43.267,4.61 43.264,4.252 C43.245,1.971 44.202,0.901 46.481,0.828 C50.276,0.705 54.074,0.61 57.87,0.58 C61.349,0.552 64.829,0.578 68.308,0.678 C69.277,0.706 70.286,0.963 71.184,1.338 C72.003,1.68 72.253,2.516 71.956,3.379 C71.661,4.236 70.998,4.6 70.089,4.566 C66.302,4.425 62.514,4.22 58.726,4.187 C55.089,4.156 51.453,4.307 47.817,4.382 C47.541,4.387 47.27,4.432 47.031,4.456 L47.031,4.456 Z" id="Shape" sketch:type="MSShapeGroup"></path>
            <path d="M230.937,31.347 L230.937,43.413 C230.937,43.975 230.958,44.534 230.925,45.093 C230.859,46.249 230.172,46.974 229.171,46.983 C228.168,46.993 227.399,46.284 227.372,45.137 C227.324,43.02 227.403,40.9 227.371,38.782 C227.26,31.35 227.095,23.921 227.007,16.489 C226.974,13.696 227.092,10.901 227.154,8.107 C227.176,7.109 227.341,6.105 227.264,5.118 C227.052,2.348 227.942,1.951 230.131,1.847 C233.902,1.667 237.703,1.983 241.487,2.187 C242.793,2.257 244.091,2.578 245.38,2.84 C253.291,4.452 259.151,11.457 256.396,20.53 C256.153,21.333 255.989,22.191 255.577,22.901 C255.012,23.875 254.399,24.939 253.527,25.591 C251.627,27.016 249.633,28.379 247.51,29.426 C246.198,30.072 244.591,30.267 243.097,30.36 C239.911,30.555 236.715,30.517 233.527,30.657 C232.765,30.69 232.016,31.048 230.937,31.347 L230.937,31.347 Z M230.851,26.686 C231.934,26.819 232.8,27.029 233.662,27.014 C237.131,26.954 240.656,27.19 244.049,26.63 C248.29,25.929 251.885,23.86 253.049,19.222 C253.789,16.268 253.781,13.339 251.792,10.774 C249.889,8.322 247.477,6.685 244.306,6.336 C243.594,6.258 242.888,6.107 242.189,5.951 C238.493,5.126 234.755,5.305 231.071,5.329 C229.894,12.548 231.027,19.631 230.851,26.686 L230.851,26.686 Z" id="Shape" sketch:type="MSShapeGroup"></path>
            <path d="M93.496,40.884 C94.74,37.819 96.107,34.796 97.202,31.678 C99.315,25.655 101.237,19.565 103.318,13.531 C103.954,11.689 104.846,9.935 105.626,8.143 C106.136,6.972 106.658,5.807 107.166,4.635 C107.74,3.304 108.611,2.8 109.65,3.213 C110.703,3.63 111.047,4.611 110.5,5.931 C109.795,7.626 108.996,9.281 108.275,10.97 C107.617,12.51 106.945,14.047 106.392,15.625 C103.806,23.005 101.318,30.419 98.664,37.775 C97.705,40.434 96.406,42.974 95.226,45.551 C94.484,47.171 92.802,47.396 91.853,45.829 C90.536,43.655 89.23,41.395 88.429,39.003 C85.957,31.623 83.734,24.162 81.408,16.732 C80.241,12.999 79.066,9.266 77.902,5.531 C77.759,5.075 77.623,4.609 77.558,4.137 C77.388,2.916 77.939,2.048 78.959,1.851 C79.894,1.671 80.722,2.279 81.062,3.391 C81.972,6.37 82.874,9.349 83.795,12.325 C86.357,20.597 88.912,28.873 91.509,37.136 C91.91,38.412 92.519,39.627 93.03,40.869 C93.188,40.874 93.342,40.88 93.496,40.884 L93.496,40.884 Z" id="Shape" sketch:type="MSShapeGroup"></path>
            <path d="M404.76,6.542 C404.76,8.054 404.781,9.368 404.757,10.681 C404.539,21.994 404.317,33.306 404.09,44.619 C404.061,46.037 403.39,46.873 402.313,46.892 C401.2,46.912 400.461,46.045 400.501,44.55 C400.682,37.717 400.953,30.885 401.091,24.051 C401.202,18.413 401.153,12.773 401.225,7.134 C401.236,6.234 400.883,5.924 400.063,5.881 C398.948,5.821 397.836,5.685 396.721,5.647 C393.765,5.546 390.807,5.489 387.851,5.392 C387.417,5.378 386.971,5.293 386.561,5.154 C385.699,4.862 385.249,4.21 385.354,3.312 C385.468,2.364 386.071,1.8 387.047,1.765 C387.764,1.739 388.485,1.781 389.203,1.827 C394.219,2.15 399.244,2.045 404.253,2.838 C408.338,3.484 412.53,3.453 416.678,3.694 C417.346,3.733 418.033,3.527 418.691,3.613 C419.915,3.772 420.603,4.596 420.508,5.595 C420.412,6.603 419.589,7.359 418.406,7.304 C415.257,7.158 412.109,6.93 408.961,6.744 C407.65,6.669 406.34,6.618 404.76,6.542 L404.76,6.542 Z" id="Shape" sketch:type="MSShapeGroup"></path>
            <path d="M166.508,47.465 C162.961,47.278 159.409,47.14 155.865,46.892 C153.933,46.756 153.584,46.339 153.361,44.373 C153.199,42.945 153.019,41.512 152.996,40.077 C152.888,33.52 152.804,26.965 152.773,20.408 C152.767,18.896 153.054,17.387 153.133,15.872 C153.333,12.124 153.493,8.375 153.668,4.626 C153.683,4.307 153.656,3.982 153.699,3.668 C153.845,2.604 154.564,1.945 155.528,1.972 C156.487,1.997 157.248,2.693 157.232,3.775 C157.182,7.412 157.369,11.088 156.879,14.671 C156.259,19.23 156.435,23.766 156.439,28.317 C156.441,31.355 156.529,34.392 156.594,37.429 C156.631,39.187 156.664,40.947 156.787,42.7 C156.808,42.994 157.246,43.289 157.542,43.52 C157.675,43.623 157.931,43.582 158.129,43.581 C163.684,43.519 169.237,43.45 174.791,43.383 C175.111,43.379 175.437,43.322 175.748,43.362 C176.769,43.491 177.517,44.016 177.587,45.089 C177.66,46.165 177.006,46.864 175.979,46.989 C174.675,47.147 173.351,47.165 172.035,47.186 C170.196,47.215 168.356,47.193 166.516,47.193 C166.516,47.281 166.512,47.372 166.508,47.465 L166.508,47.465 Z" id="Shape" sketch:type="MSShapeGroup"></path>
        </g>
        <path d="M2.945,65.14 C11.704,64.105 21.269,67.14 30.32,67.14 C45.624,67.14 60.778,67.61 76.057,66.154 C94.07,64.436 112.526,65.818 130.472,63.666 C145.994,61.806 161.345,60.872 176.96,61.639 C210.173,63.27 243.638,64.641 276.971,64.641 C297.694,64.641 319.272,64.034 339.946,65.617 C362.126,67.316 384.864,66.398 406.971,68.616 C409.242,68.844 411.024,69.788 413.446,69.141" id="line" stroke="#000000" stroke-width="4" sketch:type="MSShapeGroup"></path>
    </g>
</svg>