<?xml version="1.0" encoding="UTF-8" standalone="no"?>
<svg width="75px" height="23px" viewBox="0 0 227 67" version="1.1" xmlns="http://www.w3.org/2000/svg" xmlns:xlink="http://www.w3.org/1999/xlink" xmlns:sketch="http://www.bohemiancoding.com/sketch/ns">
    <g id="Page-1" stroke="none" stroke-width="1" fill="none" fill-rule="evenodd" sketch:type="MSPage">
        <g id="Group" sketch:type="MSLayerGroup" transform="translate(1.000000, 0.000000)" fill="#000000">
            <path d="M30.336,25.08 C21.7,25.847 13.188,26.341 4.597,25.101 C4.542,25.78 4.49,26.126 4.492,26.472 C4.522,31.263 4.271,36.063 5.073,40.826 C5.291,42.119 5.255,43.455 5.356,44.768 C5.457,46.064 4.772,47.018 3.666,47.083 C2.602,47.145 1.776,46.352 1.687,45.116 C1.211,38.585 0.612,32.057 0.901,25.492 C1.189,18.943 1.432,12.39 1.708,5.843 C1.731,5.286 1.79,4.718 1.928,4.181 C2.181,3.208 2.834,2.657 3.865,2.785 C4.892,2.913 5.363,3.619 5.426,4.611 C5.442,4.846 5.369,5.087 5.361,5.326 C5.133,10.713 4.911,16.099 4.688,21.461 C4.874,21.568 4.968,21.673 5.07,21.678 C9.536,21.892 14.002,22.251 18.466,22.257 C22.255,22.261 26.043,21.831 29.834,21.65 C30.726,21.607 30.653,21.079 30.626,20.519 C30.459,17.085 30.314,13.651 30.094,10.22 C29.975,8.353 29.699,6.495 29.537,4.63 C29.46,3.736 29.861,2.923 30.744,2.825 C31.379,2.755 32.274,3.032 32.689,3.484 C33.148,3.989 33.351,4.86 33.393,5.588 C33.843,13.442 34.496,21.266 33.728,29.173 C33.252,34.07 33.783,39.069 33.912,44.023 C33.95,45.485 33.427,46.411 32.292,46.502 C31.232,46.588 30.46,45.835 30.347,44.383 C29.88,38.399 29.701,32.408 30.271,26.419 C30.298,26.076 30.303,25.73 30.336,25.08 L30.336,25.08 Z" id="Shape" sketch:type="MSShapeGroup"></path>
            <path d="M44.823,26.809 C45.065,32.455 45.302,37.991 45.548,43.703 C47.613,43.703 49.562,43.746 51.506,43.694 C57.18,43.546 62.853,43.36 68.527,43.182 C69.443,43.153 70.184,43.413 70.589,44.3 C71.14,45.499 70.329,46.808 68.974,46.841 C61.863,47.013 54.75,47.173 47.64,47.316 C46.482,47.338 45.322,47.269 44.162,47.215 C42.71,47.148 42.021,46.51 41.974,45.062 C41.642,34.797 41.296,24.534 41.039,14.265 C40.977,11.794 41.204,9.314 41.353,6.84 C41.497,4.453 42.289,3.847 44.656,3.714 C49.918,3.417 55.174,3.019 60.43,2.644 C62.697,2.483 64.958,2.269 67.226,2.105 C67.741,2.068 68.269,2.103 68.782,2.172 C69.973,2.333 70.67,3.138 70.56,4.174 C70.456,5.152 69.672,5.718 68.5,5.749 C66.387,5.806 64.27,5.835 62.162,5.993 C58.502,6.264 54.85,6.638 51.192,6.945 C49.321,7.103 47.444,7.189 45.576,7.368 C45.332,7.39 44.93,7.764 44.926,7.981 C44.833,12.893 44.787,17.806 44.738,22.718 C44.737,22.788 44.804,22.861 44.923,23.095 C45.515,23.022 46.181,22.992 46.82,22.852 C51.398,21.847 56.03,22.076 60.659,22.22 C61.097,22.234 61.536,22.263 61.973,22.308 C63.031,22.417 63.75,23.134 63.756,24.066 C63.763,24.986 63.038,25.734 61.999,25.863 C61.764,25.892 61.52,25.884 61.28,25.884 C57.848,25.867 54.411,25.738 50.985,25.876 C48.979,25.956 46.984,26.467 44.823,26.809 L44.823,26.809 Z" id="Shape" sketch:type="MSShapeGroup"></path>
            <path d="M206.292,20.222 C207.884,20.331 209.482,20.374 211.065,20.559 C216.787,21.226 220.065,24.814 221.648,30.002 C222.358,32.325 222.427,34.864 222.615,37.318 C222.678,38.139 222.346,39.074 221.955,39.832 C220.119,43.386 217.286,45.58 213.351,46.679 C209.22,47.83 205.316,47.549 201.383,46.097 C198.202,44.922 195.779,42.755 193.661,40.21 C192.801,39.176 192.97,37.872 193.891,37.24 C194.806,36.614 195.809,36.968 196.631,38.068 C198.965,41.188 202.084,43.001 205.929,43.66 C209.579,44.288 212.999,43.528 215.992,41.561 C217.786,40.382 219.188,38.585 219.088,36.078 C218.992,33.731 218.586,31.499 217.597,29.349 C215.897,25.65 212.941,24.026 209.004,23.942 C207.084,23.902 205.164,23.936 203.245,23.919 C197.461,23.863 193.667,19.962 193.711,14.191 C193.745,9.683 195.649,6.208 199.292,3.616 C201.57,1.995 204.118,1.809 206.754,2.183 C209.649,2.595 212.311,3.659 214.697,5.354 C216.177,6.406 217.272,7.763 217.602,9.597 C217.78,10.584 217.358,11.352 216.378,11.659 C215.451,11.947 214.583,11.608 214.311,10.712 C213.705,8.72 212.175,7.728 210.455,7.054 C208.875,6.435 207.196,5.898 205.52,5.724 C201.746,5.333 198.084,8.301 197.522,12.078 C197.258,13.845 197.052,15.62 197.948,17.354 C198.966,19.327 200.612,20.148 202.684,20.291 C203.878,20.373 205.081,20.306 206.282,20.306 C206.286,20.275 206.288,20.249 206.292,20.222 L206.292,20.222 Z" id="Shape" sketch:type="MSShapeGroup"></path>
            <path d="M110.686,30.057 C110.686,32.221 110.616,34.292 110.703,36.357 C110.822,39.192 111.066,42.022 111.245,44.855 C111.352,46.56 110.682,47.557 109.446,47.568 C108.257,47.579 107.759,46.732 107.607,44.996 C106.802,35.856 107.192,26.695 107.028,17.544 C106.956,13.55 106.672,9.558 106.482,5.565 C106.333,2.396 107.097,2.24 109.96,1.71 C111.396,1.442 112.906,1.588 114.384,1.544 C114.622,1.536 114.883,1.57 115.097,1.49 C118.499,0.226 121.838,1.183 125.096,1.992 C128.578,2.855 130.833,5.39 132.272,8.582 C135.837,16.497 131.052,26.08 122.471,28.568 C119.049,29.561 115.586,29.898 112.065,29.975 C111.635,29.982 111.208,30.024 110.686,30.057 L110.686,30.057 Z M110.831,26.38 C114.174,26.211 117.474,26.265 120.759,25.304 C126.842,23.523 130.224,18.976 129.808,12.672 C129.607,9.632 126.726,5.906 123.912,5.337 C121.204,4.788 118.471,4.023 115.679,5.052 C115.218,5.222 114.656,5.126 114.139,5.129 C112.803,5.137 111.467,5.132 110.102,5.132 C110.35,12.388 110.589,19.315 110.831,26.38 L110.831,26.38 Z" id="Shape" sketch:type="MSShapeGroup"></path>
            <path d="M161.107,14.517 C161.393,21.105 161.686,27.693 161.961,34.28 C162.064,36.759 163.065,38.931 164.268,41.011 C165.133,42.507 166.478,43.329 168.275,43.484 C171.552,43.764 174.757,43.405 177.857,42.393 C180.423,41.555 181.71,39.433 182.603,37.024 C183.486,34.648 183.386,32.157 183.559,29.692 C184.023,23.088 183.516,16.514 182.986,9.939 C182.854,8.308 182.84,6.667 182.835,5.028 C182.829,3.726 183.582,2.902 184.635,2.924 C185.671,2.945 186.345,3.78 186.414,5.084 C186.561,7.796 186.745,10.506 186.876,13.219 C187.044,16.69 187.272,20.162 187.291,23.635 C187.312,27.03 187.314,30.448 186.944,33.817 C186.464,38.213 185.094,42.386 180.993,44.767 C179.184,45.817 176.995,46.394 174.905,46.727 C172.561,47.101 170.134,47.058 167.746,47.006 C165.672,46.961 163.868,46.063 162.47,44.502 C160.648,42.472 159.366,40.077 158.889,37.434 C158.41,34.778 158.301,32.04 158.194,29.333 C157.957,23.303 157.779,17.27 157.665,11.233 C157.619,8.758 157.737,6.276 157.9,3.804 C158.005,2.201 159.596,1.369 160.681,2.319 C161.119,2.703 161.412,3.477 161.426,4.082 C161.493,7.558 161.458,11.035 161.458,14.512 C161.342,14.513 161.224,14.515 161.107,14.517 L161.107,14.517 Z" id="Shape" sketch:type="MSShapeGroup"></path>
            <path d="M80.677,43.212 C83.054,43.212 85.325,43.212 87.6,43.211 C91.435,43.21 95.271,43.193 99.107,43.221 C99.694,43.225 100.309,43.339 100.861,43.54 C101.759,43.871 102.171,44.59 101.971,45.543 C101.771,46.503 101.08,46.954 100.142,46.947 C93.353,46.901 86.564,46.841 79.776,46.777 C77.564,46.756 77.04,46.211 76.986,44.007 C76.752,34.38 76.515,24.753 76.257,15.126 C76.163,11.65 75.986,8.179 75.888,4.704 C75.833,2.802 76.476,1.883 77.723,1.891 C78.928,1.9 79.43,2.732 79.484,4.62 C79.84,17.281 80.213,29.941 80.585,42.601 C80.588,42.756 80.629,42.907 80.677,43.212 L80.677,43.212 Z" id="Shape" sketch:type="MSShapeGroup"></path>
        </g>
        <path d="M2.779,61.14 C5.336,58.468 15.93,60.976 19.446,61.14 C25.239,61.411 31.213,61.473 37.114,61.473 C56.455,61.473 75.347,59.14 94.697,59.14 C103.61,59.14 112.612,59.677 121.363,60.825 C130.119,61.972 139.212,61.97 148.056,63.206 C167.25,65.888 186.849,61.474 206.187,61.474 C212.399,61.474 218.616,60.89 224.753,61.423" id="line" stroke="#000000" stroke-width="4" sketch:type="MSShapeGroup"></path>
    </g>
</svg>