<?xml version="1.0" encoding="UTF-8" standalone="no"?>
<svg width="85px" height="25px" viewBox="0 0 249 71" version="1.1" xmlns="http://www.w3.org/2000/svg" xmlns:xlink="http://www.w3.org/1999/xlink" xmlns:sketch="http://www.bohemiancoding.com/sketch/ns">
    <g id="Page-1" stroke="none" stroke-width="1" fill="none" fill-rule="evenodd" sketch:type="MSPage">
        <g id="Group" sketch:type="MSLayerGroup" transform="translate(2.000000, 0.000000)" fill="#000000">
            <path d="M140.494,9.082 C140.302,9.415 140.232,9.478 140.23,9.546 C140.137,13.292 139.986,17.038 139.982,20.784 C139.978,23.819 140.074,26.861 140.267,29.891 C140.517,33.839 140.89,37.781 141.253,41.721 C141.311,42.34 141.552,42.954 141.783,43.542 C142.279,44.806 141.768,46.042 140.529,46.457 C139.412,46.832 138.322,46.183 138.144,44.794 C137.678,41.148 137.228,37.496 136.962,33.834 C136.608,28.973 136.2,24.097 136.256,19.23 C136.309,14.538 136.902,9.847 137.3,5.162 C137.388,4.144 137.693,3.13 138.899,2.888 C140.089,2.648 140.937,3.344 141.506,4.241 C142.985,6.565 144.611,8.843 145.746,11.336 C148.501,17.39 152.298,22.79 156.808,27.505 C160.995,31.882 164.151,36.958 167.948,41.573 C168.073,41.724 168.194,41.879 168.461,42.208 C168.52,41.739 168.591,41.461 168.583,41.183 C168.39,34.031 168.121,26.878 168.011,19.725 C167.935,14.853 168.072,9.977 168.126,5.103 C168.129,4.749 168.192,4.382 168.303,4.044 C168.622,3.066 169.545,2.525 170.444,2.749 C171.367,2.978 172.03,3.862 171.877,4.827 C171.051,9.964 171.551,15.119 171.641,20.265 C171.792,28.94 171.993,37.613 172.176,46.286 C172.197,47.297 172.093,48.263 170.993,48.671 C169.87,49.087 169.028,48.474 168.373,47.679 C166.596,45.52 164.858,43.325 163.135,41.122 C162.247,39.991 161.339,38.864 160.586,37.644 C159.166,35.345 157.303,33.456 155.508,31.463 C151.071,26.53 146.848,21.403 143.838,15.412 C142.802,13.349 141.683,11.326 140.494,9.082 L140.494,9.082 Z" id="Shape" sketch:type="MSShapeGroup"></path>
            <path d="M185.839,44.565 C189.556,44.924 192.792,44.691 196.021,43.979 C200.851,42.914 205.705,41.95 210.544,40.926 C211.634,40.696 212.613,41.198 212.904,42.215 C213.208,43.268 212.551,44.283 211.27,44.565 C207.837,45.314 204.399,46.035 200.956,46.728 C195.779,47.771 190.602,48.727 185.268,48.271 C183.371,48.109 182.675,47.634 182.552,45.695 C182.417,43.581 182.34,41.463 182.305,39.343 C182.195,32.628 182.13,25.912 182.018,19.197 C181.933,14.084 181.765,8.969 181.71,3.855 C181.679,0.956 182.488,0.357 185.417,0.433 C189.134,0.529 192.858,0.347 196.569,0.517 C200.954,0.718 205.327,1.165 209.706,1.517 C210.02,1.542 210.337,1.627 210.642,1.721 C211.647,2.03 212.197,2.896 211.989,3.814 C211.776,4.755 210.968,5.293 209.901,5.175 C207.082,4.865 204.269,4.351 201.445,4.274 C196.138,4.128 190.826,4.232 185.175,4.232 C185.341,10.362 185.509,16.558 185.679,22.808 C186.529,22.861 187.117,22.914 187.705,22.931 C192.14,23.058 196.572,23.177 201.007,23.298 C201.206,23.304 201.408,23.297 201.607,23.327 C202.628,23.48 203.349,24.264 203.321,25.173 C203.293,26.107 202.558,26.884 201.505,26.892 C199.187,26.91 196.867,26.871 194.551,26.804 C191.953,26.729 189.361,26.572 186.764,26.526 C186.46,26.521 185.883,26.995 185.88,27.252 C185.826,33.001 185.839,38.751 185.839,44.565 L185.839,44.565 Z" id="Shape" sketch:type="MSShapeGroup"></path>
            <path d="M57.427,29.569 C57.121,32.005 56.946,34.647 56.402,37.215 C56.136,38.468 55.409,39.798 54.504,40.708 C51.392,43.846 47.666,46.201 43.418,47.36 C38.226,48.776 33.426,47.911 29.329,44.004 C24.889,39.768 23.299,34.342 22.437,28.567 C21.821,24.434 22.309,20.324 23.286,16.321 C24.536,11.196 27.504,7.176 32.258,4.789 C34.734,3.545 37.439,2.734 40.086,1.869 C41.761,1.32 43.246,1.735 44.778,2.823 C51.916,7.892 55.632,14.885 56.762,23.407 C57.022,25.384 57.192,27.372 57.427,29.569 L57.427,29.569 Z M53.852,29.362 C53.778,29.354 53.705,29.347 53.63,29.341 C53.63,28.7 53.661,28.06 53.622,27.423 C53.573,26.627 53.48,25.833 53.384,25.04 C52.466,17.503 49.797,10.904 43.365,6.311 C42.311,5.559 41.247,5.018 39.932,5.545 C37.75,6.422 35.474,7.125 33.416,8.233 C30.03,10.059 27.811,13.057 26.863,16.715 C25.874,20.541 25.392,24.505 26.038,28.477 C26.809,33.212 28.034,37.715 31.657,41.279 C34.782,44.353 38.438,44.973 42.372,43.923 C46.038,42.943 49.205,40.851 51.956,38.22 C52.414,37.782 52.787,37.096 52.891,36.473 C53.282,34.113 53.543,31.734 53.852,29.362 L53.852,29.362 Z" id="Shape" sketch:type="MSShapeGroup"></path>
            <path d="M118.829,24.132 C119.11,24.679 119.376,25.165 119.614,25.662 C121.26,29.08 122.843,32.531 124.562,35.913 C125.88,38.509 127.338,41.034 128.794,43.556 C129.472,44.727 129.492,45.685 128.66,46.335 C127.783,47.023 126.699,46.814 125.886,45.674 C123.478,42.307 121.792,38.554 120.091,34.8 C118.737,31.82 117.173,28.936 115.724,25.998 C115.406,25.353 115.047,25.241 114.307,25.37 C112.902,25.616 111.454,25.638 110.025,25.725 C109.437,25.761 108.844,25.731 108.131,25.731 C108.19,27.055 108.277,28.277 108.291,29.502 C108.339,33.539 108.343,37.578 108.401,41.615 C108.418,42.69 108.525,43.77 108.68,44.837 C108.882,46.229 108.337,47.203 107.169,47.358 C105.942,47.521 105.064,46.705 105.014,45.234 C104.888,41.52 104.836,37.802 104.702,34.088 C104.438,26.777 104.121,19.472 103.864,12.161 C103.77,9.524 103.749,6.886 103.762,4.247 C103.77,2.55 104.691,1.846 106.409,2.05 C106.801,2.097 107.204,2.066 107.598,2.038 C110.227,1.849 112.86,1.454 115.481,1.517 C117.644,1.569 119.915,1.835 121.921,2.585 C125.035,3.751 126.633,6.481 127.241,9.634 C127.586,11.415 127.511,13.295 127.463,15.126 C127.442,15.884 127.141,16.72 126.727,17.368 C124.957,20.139 122.809,22.523 119.623,23.734 C119.378,23.833 119.142,23.976 118.829,24.132 L118.829,24.132 Z M107.747,21.839 C111.586,22.697 114.835,21.613 118.085,20.486 C120.523,19.639 122.087,17.792 123.516,15.794 C123.738,15.482 123.918,15.058 123.912,14.689 C123.886,13.136 123.953,11.552 123.658,10.043 C123.306,8.238 122.363,6.57 120.564,5.898 C119.138,5.366 117.534,5.087 116.007,5.086 C113.461,5.084 110.915,5.418 108.367,5.557 C107.519,5.602 107.294,5.969 107.332,6.758 C107.492,9.946 107.641,13.137 107.736,16.328 C107.795,18.191 107.747,20.056 107.747,21.839 L107.747,21.839 Z" id="Shape" sketch:type="MSShapeGroup"></path>
            <path d="M64.328,20.421 C64.602,15.233 64.872,10.043 65.155,4.855 C65.183,4.338 65.245,3.816 65.363,3.314 C65.613,2.252 66.419,1.661 67.342,1.806 C68.284,1.954 68.916,2.743 68.848,3.802 C68.721,5.756 68.454,7.706 68.407,9.661 C68.24,16.572 68.048,23.484 68.053,30.397 C68.056,33.656 69.276,36.691 71.054,39.384 C71.755,40.446 72.967,41.396 74.158,41.873 C77.822,43.345 81.626,43.582 85.4,42.198 C87.833,41.306 89.366,39.719 89.98,37 C90.964,32.631 90.418,28.347 90.038,24.005 C89.616,19.191 89.419,14.356 89.127,9.528 C89.03,7.931 88.944,6.336 88.856,4.738 C88.783,3.415 89.374,2.566 90.436,2.462 C91.457,2.359 92.328,3.122 92.431,4.411 C92.589,6.402 92.584,8.407 92.73,10.398 C93.161,16.294 93.575,22.195 94.108,28.085 C94.465,32.051 94.073,35.932 92.928,39.7 C92.056,42.569 89.813,44.289 87.107,45.372 C82.253,47.316 77.394,47.001 72.608,45.151 C70.384,44.294 68.683,42.755 67.526,40.611 C65.395,36.662 64.264,32.47 64.262,27.978 C64.26,25.46 64.262,22.943 64.262,20.424 C64.283,20.426 64.305,20.424 64.328,20.421 L64.328,20.421 Z" id="Shape" sketch:type="MSShapeGroup"></path>
            <path d="M229.986,21.465 C230.923,20.412 231.835,19.558 232.544,18.56 C235.521,14.368 238.444,10.136 241.368,5.905 C241.958,5.051 242.431,4.12 243.01,3.259 C243.704,2.222 244.691,1.955 245.576,2.499 C246.447,3.034 246.728,4.144 246.089,5.136 C244.186,8.078 242.297,11.035 240.263,13.888 C237.923,17.168 235.391,20.31 233.029,23.576 C231.785,25.295 231.093,27.131 231.248,29.441 C231.525,33.621 231.37,37.831 231.36,42.028 C231.357,43.424 230.619,44.248 229.525,44.244 C228.38,44.239 227.71,43.347 227.707,41.9 C227.697,37.384 227.712,32.868 227.642,28.352 C227.602,25.821 227.052,23.398 225.957,21.071 C224.597,18.182 223.572,15.128 222.097,12.304 C221.117,10.43 219.619,8.819 218.305,7.129 C217.718,6.375 216.97,5.748 216.367,5.007 C215.627,4.095 215.677,3.096 216.404,2.43 C217.183,1.717 218.158,1.858 219.07,2.684 C222.978,6.22 225.738,10.476 227.429,15.476 C228.101,17.468 229.076,19.36 229.986,21.465 L229.986,21.465 Z" id="Shape" sketch:type="MSShapeGroup"></path>
            <path d="M9.896,47.762 C10.055,43.368 10.283,38.978 10.352,34.583 C10.41,30.907 10.275,27.229 10.24,23.552 C10.182,17.519 10.133,11.485 10.089,5.45 C10.086,5.095 10.113,4.721 10.21,4.382 C10.443,3.566 11.004,3.087 11.868,3.078 C12.723,3.068 13.309,3.503 13.567,4.325 C13.65,4.589 13.689,4.875 13.692,5.15 C13.795,14.822 13.954,24.493 13.962,34.164 C13.966,39.356 13.702,44.551 13.577,49.742 C13.543,51.179 13.78,52.655 13.506,54.037 C13.307,55.046 12.658,56.136 11.888,56.829 C8.916,59.502 5.286,59.267 1.677,58.753 C0.698,58.612 0.195,57.844 0.305,56.809 C0.406,55.867 1.207,55.252 2.272,55.272 C3.587,55.295 4.917,55.456 6.214,55.319 C7.2,55.215 8.158,54.77 9.11,54.423 C9.899,54.133 10.099,53.474 10.087,52.682 C10.064,51.043 10.08,49.405 10.08,47.766 C10.018,47.763 9.957,47.763 9.896,47.762 L9.896,47.762 Z" id="Shape" sketch:type="MSShapeGroup"></path>
        </g>
        <path d="M2.945,67.204 C4.39,68.671 11.995,68.1 14.183,68.21 C21.061,68.556 28.136,66.814 34.994,66.254 C53.938,64.707 72.967,64.082 91.945,62.637 C114.582,60.913 137.529,62.606 160.213,61.649 C176.359,60.968 192.633,60.301 208.757,61.405 C215.21,61.846 221.808,62.128 228.264,62.399 C230.517,62.494 232.736,62.929 234.958,63.277 C237.117,63.614 239.203,63.699 241.362,63.705" id="line" stroke="#000000" stroke-width="4" sketch:type="MSShapeGroup"></path>
    </g>
</svg>